<svg width="32" height="32" viewBox="0 0 32 32" fill="none" xmlns="http://www.w3.org/2000/svg">
<path d="M16 0C7.164 0 0 7.164 0 16C0 24.836 7.164 32 16 32C24.836 32 32 24.836 32 16C32 7.164 24.836 0 16 0ZM16 4C21.207 4 25.605 7.354 27.266 12H4.734C6.395 7.354 10.793 4 16 4ZM16 18C14.895 18 14 17.105 14 16C14 14.895 14.895 14 16 14C17.105 14 18 14.895 18 16C18 17.105 17.105 18 16 18ZM4 16C9.465 16 13.891 21.266 13.984 27.797C8.328 26.828 4 21.926 4 16ZM18.016 27.797C18.109 21.266 22.535 16 28 16C28 21.926 23.672 26.828 18.016 27.797Z" fill="white"/>
</svg>
